Coordinates
version=1
nRows=22
nColumns=26
inDegrees=yes

Units are S.I. units (second, meters, Newtons, ...)
If the header above contains a line with 'inDegrees', this indicates whether rotational values are in degrees (yes) or radians (no).

endheader
time	pelvis_tilt	pelvis_list	pelvis_rotation	pelvis_tx	pelvis_ty	pelvis_tz	hip_flexion_r	hip_adduction_r	hip_rotation_r	knee_angle_r	knee_angle_r_beta	ankle_angle_r	subtalar_angle_r	mtp_angle_r	hip_flexion_l	hip_adduction_l	hip_rotation_l	knee_angle_l	knee_angle_l_beta	ankle_angle_l	subtalar_angle_l	mtp_angle_l	lumbar_extension	lumbar_bending	lumbar_rotation
      2.50500000	    -17.43499863	      9.71645588	     -1.47034686	     -0.16286298	      0.84398202	     -0.53258478	     57.62208181	    -18.34597829	      1.18378563	     73.86269435	      1.28914721	     29.24919185	      0.00000000	      0.00000000	     52.73976551	     -4.49260826	    -12.30673972	     70.92084120	      1.23780219	     29.99463940	      0.00000000	      0.00000000	      1.25787227	    -11.74740387	     -3.76931874
      2.51000000	    -17.42072859	      9.87332709	     -1.30982121	     -0.16168214	      0.84742136	     -0.53267632	     57.09399625	    -18.67422607	      0.98747518	     73.18223637	      1.27727098	     29.09226097	      0.00000000	      0.00000000	     52.21555004	     -4.11458861	    -12.32541344	     70.12874749	      1.22397754	     29.99256631	      0.00000000	      0.00000000	      1.46413814	    -11.95557555	     -3.80972982
      2.51500000	    -17.41618470	      9.94489185	     -1.16140753	     -0.16047194	      0.85118473	     -0.53283554	     56.50705978	    -18.94400991	      0.70329057	     72.42543722	      1.26406234	     28.89215269	      0.00000000	      0.00000000	     51.66911339	     -3.81656970	    -12.32249857	     69.29222834	      1.20937753	     29.98712550	      0.00000000	      0.00000000	      1.69365167	    -12.05438526	     -3.82158186
      2.52000000	    -17.42197164	      9.91967599	     -1.02803954	     -0.15923966	      0.85524580	     -0.53305889	     55.86213774	    -19.14219829	      0.32527740	     71.59866011	      1.24963236	     28.65207915	      0.00000000	      0.00000000	     51.10892909	     -3.61745687	    -12.29892313	     68.43006147	      1.19432988	     29.95720014	      0.00000000	      0.00000000	      1.94868400	    -12.03228376	     -3.80117887
      2.52500000	    -17.43944527	      9.79839770	     -0.91460954	     -0.15799298	      0.85959921	     -0.53333441	     55.16281803	    -19.25946015	     -0.14280584	     70.70396689	      1.23401702	     28.37119598	      0.00000000	      0.00000000	     50.53588061	     -3.52705825	    -12.26586159	     67.54072965	      1.17880811	     29.76941777	      0.00000000	      0.00000000	      2.22979783	    -11.89029450	     -3.74836106
      2.53000000	    -17.46273455	      9.58689049	     -0.82767136	     -0.15673268	      0.86422198	     -0.53365216	     54.41130058	    -19.29448674	     -0.69186825	     69.75439908	      1.21744393	     28.04152663	      0.00000000	      0.00000000	     49.94490905	     -3.54686987	    -12.23268463	     66.63359841	      1.16297568	     29.50576721	      0.00000000	      0.00000000	      2.52865721	    -11.63213789	     -3.65648944
      2.53500000	    -17.49136975	      9.29703409	     -0.76832461	     -0.15545805	      0.86910132	     -0.53400952	     53.61433377	    -19.25331805	     -1.31062324	     68.75638427	      1.20002529	     27.65753766	      0.00000000	      0.00000000	     49.33522213	     -3.66303313	    -12.20338612	     65.70605241	      1.14678695	     29.22154821	      0.00000000	      0.00000000	      2.84610192	    -11.27228327	     -3.53101706
      2.54000000	    -17.52195723	      8.94281802	     -0.73044870	     -0.15416045	      0.87425326	     -0.53440343	     52.76955223	    -19.14890260	     -1.99086968	     67.70784282	      1.18172479	     27.21534747	      0.00000000	      0.00000000	     48.70017750	     -3.85422519	    -12.17767397	     64.74726567	      1.13005297	     28.90503558	      0.00000000	      0.00000000	      3.17164796	    -10.82432968	     -3.39374821
      2.54500000	    -17.55323628	      8.54777456	     -0.71122229	     -0.15283319	      0.87968792	     -0.53481561	     51.88225836	    -18.99581695	     -2.71155272	     66.60745543	      1.16251940	     26.70977306	      0.00000000	      0.00000000	     48.03484701	     -4.09591692	    -12.16410681	     63.74323816	      1.11252938	     28.53908240	      0.00000000	      0.00000000	      3.50200184	    -10.31715158	     -3.26186031
      2.55000000	    -17.58491971	      8.13755070	     -0.70303803	     -0.15146889	      0.88542103	     -0.53522800	     50.95997314	    -18.81503132	     -3.45206142	     65.45520213	      1.14240879	     26.13087375	      0.00000000	      0.00000000	     47.33759884	     -4.35829432	    -12.16867507	     62.68378073	      1.09403836	     28.11262744	      0.00000000	      0.00000000	      3.83606846	     -9.78493343	     -3.14144820
      2.55500000	    -17.61683685	      7.73161303	     -0.69896589	     -0.15005341	      0.89148010	     -0.53562170	     50.00463715	    -18.62014993	     -4.19808125	     64.24366567	      1.12126349	     25.46566075	      0.00000000	      0.00000000	     46.60709274	     -4.61669184	    -12.18988710	     61.55822705	      1.07439374	     27.60501829	      0.00000000	      0.00000000	      4.17405883	     -9.25576278	     -3.04143932
      2.56000000	    -17.64006652	      7.35360864	     -0.69487368	     -0.14856777	      0.89789256	     -0.53597291	     49.01384585	    -18.43065538	     -4.93200989	     62.97184657	      1.09906606	     24.70268435	      0.00000000	      0.00000000	     45.83166338	     -4.84627311	    -12.23224457	     60.36131039	      1.05350361	     27.00715944	      0.00000000	      0.00000000	      4.50472801	     -8.76040872	     -2.96472276
      2.56500000	    -17.64749505	      7.02528088	     -0.69194391	     -0.14699579	      0.90466751	     -0.53626141	     47.98969629	    -18.26093573	     -5.63493615	     61.64221383	      1.07585959	     23.83679155	      0.00000000	      0.00000000	     45.00196073	     -5.02635254	    -12.30265119	     59.08723928	      1.03126687	     26.31339692	      0.00000000	      0.00000000	      4.82415669	     -8.32926737	     -2.90038417
      2.57000000	    -17.63010977	      6.76082897	     -0.69004788	     -0.14532756	      0.91180267	     -0.53648014	     46.93334384	    -18.12503873	     -6.29573631	     60.26461230	      1.05181591	     22.86034370	      0.00000000	      0.00000000	     44.11027229	     -5.13833936	    -12.39753321	     57.73903328	      1.00773624	     25.52447350	      0.00000000	      0.00000000	      5.12295769	     -7.97964437	     -2.83933631
      2.57500000	    -17.56937479	      6.56441653	     -0.69310984	     -0.14353995	      0.91929094	     -0.53662694	     45.82930771	    -18.02950258	     -6.91352296	     58.84548270	      1.02704742	     21.77475097	      0.00000000	      0.00000000	     43.13680721	     -5.17817777	    -12.51528373	     56.31934908	      0.98295807	     24.63925794	      0.00000000	      0.00000000	      5.38154950	     -7.71618676	     -2.77703122
      2.58000000	    -17.45221826	      6.43792433	     -0.70697365	     -0.14162480	      0.92709457	     -0.53670662	     44.67315880	    -17.97954167	     -7.48428857	     57.39868548	      1.00179605	     20.58793151	      0.00000000	      0.00000000	     42.07187852	     -5.14593531	    -12.65931733	     54.83795876	      0.95710294	     23.67035016	      0.00000000	      0.00000000	      5.58665200	     -7.53935332	     -2.70472084
      2.58500000	    -17.26862442	      6.37237026	     -0.73792562	     -0.13958358	      0.93517091	     -0.53673411	     43.45920004	    -17.96901137	     -8.01089408	     55.93369849	      0.97622720	     19.30906220	      0.00000000	      0.00000000	     40.91041890	     -5.05037072	    -12.82502659	     53.30380049	      0.93032682	     22.62140277	      0.00000000	      0.00000000	      5.72798757	     -7.43590214	     -2.61321534
      2.59000000	    -17.00930601	      6.35676021	     -0.78705940	     -0.13742333	      0.94346939	     -0.53672138	     42.18077490	    -17.99502656	     -8.50130468	     54.46131389	      0.95052924	     17.94302733	      0.00000000	      0.00000000	     39.64856193	     -4.90118706	    -13.00444194	     51.72703005	      0.90280699	     21.49529696	      0.00000000	      0.00000000	      5.79355776	     -7.39168028	     -2.50243736
      2.59500000	    -16.67114742	      6.37265309	     -0.85621610	     -0.13515604	      0.95193856	     -0.53668052	     40.83204659	    -18.04200341	     -8.96565714	     52.98172036	      0.92470546	     16.50155197	      0.00000000	      0.00000000	     38.29056717	     -4.71906560	    -13.19423049	     50.12013889	      0.87476145	     20.29651020	      0.00000000	      0.00000000	      5.77830979	     -7.38357022	     -2.37035645
      2.60000000	    -16.25863949	      6.40445721	     -0.94795177	     -0.13280307	      0.96051701	     -0.53662306	     39.41961423	    -18.09728913	     -9.40926151	     51.49904774	      0.89882794	     14.99123872	      0.00000000	      0.00000000	     36.84775088	     -4.52091871	    -13.39149280	     48.49173564	      0.84634045	     19.03201199	      0.00000000	      0.00000000	      5.68573883	     -7.39129925	     -2.21563170
      2.60500000	    -15.77697749	      6.43822255	     -1.06265778	     -0.13039038	      0.96915619	     -0.53655780	     37.94862658	    -18.14689554	     -9.83758238	     50.01511708	      0.87292847	     13.41361583	      0.00000000	      0.00000000	     35.33012976	     -4.32114605	    -13.59068753	     46.84764189	      0.81764560	     17.69795564	      0.00000000	      0.00000000	      5.51857370	     -7.39741071	     -2.03867717
      2.61000000	    -15.23566195	      6.45959537	     -1.19567208	     -0.12793685	      0.97780082	     -0.53649473	     36.42541341	    -18.18035876	    -10.26336398	     48.52722727	      0.84695989	     11.77611947	      0.00000000	      0.00000000	     33.75393455	     -4.13385501	    -13.78877548	     45.19735104	      0.78884259	     16.30583554	      0.00000000	      0.00000000	      5.28484560	     -7.38545587	     -1.84496842
